<?xml version="1.0" encoding="utf-8"?>
<!-- Generator: $$$/GeneralStr/196=Adobe Illustrator 27.6.0, SVG Export Plug-In . SVG Version: 6.00 Build 0)  -->
<svg version="1.1" id="Livello_1" xmlns="http://www.w3.org/2000/svg" xmlns:xlink="http://www.w3.org/1999/xlink" x="0px" y="0px"
	 viewBox="0 0 355.3 132.7" style="enable-background:new 0 0 355.3 132.7;" xml:space="preserve">
<style type="text/css">
	.st0{fill:none;stroke:#51F501;stroke-width:6;stroke-linecap:round;stroke-linejoin:round;stroke-miterlimit:10;}
</style>
<g id="Layer_1_00000110435639093360611600000002029896002910967461_">
	<g>
		<path class="st0" d="M237.9,8.9L131.5,44.6c-1.6,0.5-1.6,2.9,0,3.4l100.7,35.3c1.6,0.6,1.6,2.9,0,3.4L124.3,124l-0.6-0.7
			L68.4,12.6c-0.9-1.8-3.6-1.8-4.5,0L8.7,123.2"/>
		<path class="st0" d="M240.8,122.6l104.7-26.4c1.6-0.4,1.6-2.4,0-2.9L243.6,67c-1.5-0.4-1.5-2.4,0-2.8l100.7-25.7
			c1.6-0.4,1.6-2.6,0-3L241.6,9c-5.1-1.1-3.3,0.7-3.3,2.3c-0.2,16.7,0,94.8,0,109.5C238.3,122.1,239.5,122.9,240.8,122.6z"/>
	</g>
</g>
<g id="Calque_4">
</g>
<g id="Calque_2">
</g>
<g id="Calque_3">
</g>
</svg>
